<svg xmlns="http://www.w3.org/2000/svg" viewBox="0 0 24 24" fill="none" stroke="currentColor" stroke-width="2" stroke-linecap="round" stroke-linejoin="round">
  <path d="M9 19c-4.3 1.4 -4.3 -2.5 -6 -3m12 5v-3.5a3.5 3.5 0 0 0 -1.025 -2.44c3.025 -.35 6.025 -1.48 6.025 -6.5a5.5 5.5 0 0 0 -1.025 -3.55a5.5 5.5 0 0 0 -.1 -3.55s-1.025 -.35 -3.476 1.025a5.408 5.408 0 0 0 -6.098 0c-2.45 -1.375 -3.476 -1.025 -3.476 -1.025a5.5 5.5 0 0 0 -.1 3.55a5.5 5.5 0 0 0 -1.025 3.55c0 5.02 3 6.15 6.025 6.5a3.5 3.5 0 0 0 -1.025 2.44v3.5"></path>
</svg>
